# xmcd CD database file
#
# Track frame offsets:
#	150
#	12845
#	28480
#	42827
#	57695
#	71757
#	85797
#	100632
#	113957
#	127240
#	140780
#	153720
#	167232
#	180242
#	192960
#	205215
#	216772
#	229592
#	243850
#	256922
#	269675
#	284852
#	296997
#	310305
#
# Disc length: 4312 seconds
#
# Revision: 0
# Processed by: cddbd v1.5.1PL2 Copyright (c) Steve Scherf et al.
# Submitted via: CDex 1.51
#
DISCID=7e10d618
DTITLE=Lucille Bogan - Black Angel Blues
DYEAR=1927
DGENRE=Blues
TTITLE0=JimTamps Blues
TTITLE1=Coffee Grindin! Blues
TTITLE2=Pot Hound Blues
TTITLE3=Sloppy Drunk Blues
TTITLE4=Alley Boogie
TTITLE5=Black Angel Blues
TTITLE6=Tricks Ain't Walking No More
TTITLE7=T and N O Blues
TTITLE8=Walkin' Blues
TTITLE9=Baking Powder Blues
TTITLE10=Seaboard Blues
TTITLE11=Whatcha Gonna Do?
TTITLE12=Superstitious Blues(Hooch House Blues)
TTITLE13=Troubled Mind
TTITLE14=You Got To Die Some Day
TTITLE15=Lonesome Midnight Blues
TTITLE16=My Man Is Boogan Me
TTITLE17=I Hate That Train Called The M. And O.
TTITLE18=Down In Boogie Alley
TTITLE19=Shave 'em Dry
TTITLE20=Shave 'em Dry(alternate take)
TTITLE21=Barbecue Bess
TTITLE22=Stew Meat Blues
TTITLE23=Skin Game Blues
EXTD=YEAR: 1927
EXTT0=
EXTT1=
EXTT2=
EXTT3=
EXTT4=
EXTT5=
EXTT6=
EXTT7=
EXTT8=
EXTT9=
EXTT10=
EXTT11=
EXTT12=
EXTT13=
EXTT14=
EXTT15=
EXTT16=
EXTT17=
EXTT18=
EXTT19=
EXTT20=
EXTT21=
EXTT22=
EXTT23=
PLAYORDER=
